<?xml version="1.0" encoding="UTF-8"?>
<svg width="531px" height="602px" viewBox="0 0 531 602" version="1.1" xmlns="http://www.w3.org/2000/svg" xmlns:xlink="http://www.w3.org/1999/xlink" xmlns:sketch="http://www.bohemiancoding.com/sketch/ns">
    <!-- Generator: Sketch 3.5.2 (25235) - http://www.bohemiancoding.com/sketch -->
    <title>18</title>
    <desc>Created with Sketch.</desc>
    <defs>
        <linearGradient x1="0.0627118644%" y1="49.8969697%" x2="99.2754237%" y2="49.8969697%" id="linearGradient-1">
            <stop stop-color="#EF4B30" offset="0%"></stop>
            <stop stop-color="#EC4930" offset="35.79%"></stop>
            <stop stop-color="#E1442E" offset="66.71%"></stop>
            <stop stop-color="#CF3B2C" offset="95.75%"></stop>
            <stop stop-color="#CC392C" offset="100%"></stop>
        </linearGradient>
        <linearGradient x1="-0.396212121%" y1="49.7131387%" x2="99.8045455%" y2="49.7131387%" id="linearGradient-2">
            <stop stop-color="#EF4B30" offset="0%"></stop>
            <stop stop-color="#EC4930" offset="35.79%"></stop>
            <stop stop-color="#E1442E" offset="66.71%"></stop>
            <stop stop-color="#CF3B2C" offset="95.75%"></stop>
            <stop stop-color="#CC392C" offset="100%"></stop>
        </linearGradient>
        <linearGradient x1="0.0180044063%" y1="49.9684211%" x2="99.8659144%" y2="49.9684211%" id="linearGradient-3">
            <stop stop-color="#EF4B30" offset="0%"></stop>
            <stop stop-color="#EC4930" offset="35.79%"></stop>
            <stop stop-color="#E1442E" offset="66.71%"></stop>
            <stop stop-color="#CF3B2C" offset="95.75%"></stop>
            <stop stop-color="#CC392C" offset="100%"></stop>
        </linearGradient>
    </defs>
    <g id="Page-1" stroke="none" stroke-width="1" fill="none" fill-rule="evenodd" sketch:type="MSPage">
        <g id="marathonbet" sketch:type="MSArtboardGroup" transform="translate(-1227.000000, -4456.000000)">
            <g id="slice-payments-new" sketch:type="MSLayerGroup" transform="translate(1227.000000, 4456.000000)"></g>
            <g id="PAY" sketch:type="MSLayerGroup" transform="translate(1227.000000, 4456.000000)">
                <g id="18" transform="translate(0.000000, 46.000000)" sketch:type="MSShapeGroup">
                    <g id="Group">
                        <path d="M288.774015,235.382883 C310.825849,235.382883 319.751591,226.795953 319.751591,202.045393 C319.751591,176.284605 310.825849,168.707903 288.774015,168.707903 C266.722181,168.707903 257.796439,176.284605 257.796439,202.045393 C257.796439,226.795953 266.722181,235.382883 288.774015,235.382883 L288.774015,235.382883 Z" id="Shape" fill="url(#linearGradient-1)"></path>
                        <path d="M288.774015,271.24594 C263.046875,271.24594 254.121133,282.358436 254.121133,306.603884 C254.121133,330.849331 263.046875,340.446487 288.774015,340.446487 C314.501154,340.446487 323.426896,330.849331 323.426896,306.603884 C323.426896,282.358436 313.976111,271.24594 288.774015,271.24594 L288.774015,271.24594 Z" id="Shape" fill="url(#linearGradient-2)"></path>
                        <path d="M386.95718,44.4499864 C377.506394,35.8630572 365.955433,32.8323763 352.829342,32.8323763 L174.83954,32.8323763 C161.713448,32.8323763 150.162488,35.3579437 140.711702,44.4499864 L50.4041917,132.844846 C39.3782747,143.452229 34.6528818,155.574952 34.6528818,169.71813 L34.6528818,338.931146 C34.1278381,353.074324 39.3782747,363.681707 49.3541043,373.783977 L138.611527,459.653269 C149.1124,469.755538 160.663361,474.30156 174.83954,474.30156 L352.829342,474.30156 C367.005521,474.30156 378.556481,469.755538 389.057354,459.653269 L478.314777,373.783977 C488.81565,364.18682 493.016,353.579437 493.016,339.43626 L493.016,280.843096 C492.490956,275.791961 489.865738,273.266394 484.615301,273.266394 L457.838074,273.266394 L457.838074,291.450479 C457.838074,305.088543 455.7379,311.655018 443.661895,311.655018 L431.585891,311.655018 C419.509887,311.655018 417.409712,304.58343 417.409712,291.450479 L417.409712,273.266394 L399.033184,273.266394 C384.857005,273.266394 378.031437,271.24594 378.031437,259.62833 L378.031437,247.505606 C378.031437,235.887996 385.382049,233.867542 399.033184,233.867542 L417.934756,233.867542 L417.934756,215.683457 C417.934756,202.045393 420.034931,195.478918 432.110935,195.478918 L444.186939,195.478918 C456.262943,195.478918 458.363118,202.550506 458.363118,215.683457 L458.363118,233.867542 L485.140345,233.867542 C490.915825,233.867542 493.541043,230.836861 493.541043,225.280613 L493.541043,169.71813 C493.541043,155.574952 488.290607,143.452229 477.789733,132.844846 L386.95718,44.4499864 L386.95718,44.4499864 Z M288.774015,376.814658 C228.393993,375.804431 213.167727,354.589664 213.167727,312.160132 C213.167727,283.368663 215.267902,261.648784 242.045129,251.546514 C219.468251,235.887996 219.468251,219.724365 219.468251,206.591414 L219.468251,193.458464 C221.043382,149.513591 236.269648,133.349959 288.774015,133.349959 C341.278381,133.349959 355.979604,150.018704 358.604822,193.458464 L358.604822,206.591414 C358.604822,219.724365 358.079778,235.887996 336.027944,251.546514 C362.805171,261.648784 364.905346,283.368663 364.905346,312.160132 C364.380302,354.589664 348.628992,375.299317 288.774015,376.814658 L288.774015,376.814658 Z" id="Shape" fill="url(#linearGradient-3)"></path>
                        <path d="M162.238492,137.390867 L126.010479,137.390867 C111.8343,137.390867 105.008733,139.916434 105.008733,151.028931 L105.008733,163.656768 C105.008733,174.769265 112.359344,177.294832 126.010479,177.294832 L134.411178,177.294832 C139.661614,177.294832 141.761789,179.8204 141.761789,187.902215 L141.761789,353.579437 C141.761789,367.217501 144.387007,373.783977 155.937968,373.783977 L169.589103,373.783977 C181.140064,373.783977 183.765282,366.712388 183.765282,353.579437 L183.765282,151.028931 C183.240238,139.916434 175.889627,137.390867 162.238492,137.390867 L162.238492,137.390867 Z" id="Shape" fill="#FFFFFF"></path>
                        <path d="M411.109188,22.2249932 C395.357878,7.57670223 375.931263,0 352.304298,0 L175.364583,0 C151.737619,0 131.785959,7.57670223 116.559693,22.2249932 L22.5768775,112.135193 C7.87565495,126.27837 0,144.967569 0,165.677222 L0,338.931146 C0,362.67148 8.40069861,381.360679 25.2020958,397.019197 L114.459519,482.888489 C131.785959,499.557234 151.737619,507.639049 176.939714,507.133936 L351.779254,507.133936 C375.931263,507.133936 395.882922,500.062347 414.25945,482.888489 L503.516873,397.019197 C519.793226,381.360679 528.718969,362.67148 528.718969,338.931146 L528.718969,165.677222 C528.718969,144.967569 520.843314,126.27837 506.142091,112.135193 L411.109188,22.2249932 L411.109188,22.2249932 Z M493.016,224.775499 C493.016,230.331748 490.390781,233.362429 484.615301,233.362429 L457.838074,233.362429 L457.838074,215.178343 C457.838074,201.540279 455.7379,194.973804 443.661895,194.973804 L431.585891,194.973804 C419.509887,194.973804 417.409712,202.045393 417.409712,215.178343 L417.409712,233.362429 L399.033184,233.362429 C384.857005,233.362429 378.031437,235.382883 378.031437,247.000493 L378.031437,259.123216 C378.031437,270.740826 385.382049,272.76128 399.033184,272.76128 L417.934756,272.76128 L417.934756,290.945366 C417.934756,304.58343 420.034931,311.149905 432.110935,311.149905 L444.186939,311.149905 C456.262943,311.149905 458.363118,304.078316 458.363118,290.945366 L458.363118,272.76128 L485.140345,272.76128 C490.390781,272.76128 493.016,275.286848 493.541043,280.337982 L493.541043,338.931146 C493.541043,353.074324 489.340694,363.681707 478.839821,373.278863 L389.582398,459.148155 C379.081525,469.250425 367.530564,473.796446 353.354385,473.796446 L174.83954,473.796446 C160.663361,473.796446 149.1124,469.250425 138.611527,459.148155 L49.3541043,373.278863 C38.8532311,363.176594 34.1278381,353.074324 34.6528818,338.931146 L34.6528818,169.71813 C34.6528818,155.574952 39.3782747,143.452229 50.4041917,132.844846 L140.711702,44.4499864 C150.162488,35.8630572 161.713448,32.8323763 174.83954,32.8323763 L352.829342,32.8323763 C365.955433,32.8323763 377.506394,35.3579437 386.95718,44.4499864 L477.789733,132.844846 C488.290607,143.452229 493.541043,155.574952 493.541043,169.71813 L493.541043,224.775499 L493.016,224.775499 Z" id="Shape" fill="#FFFFFF"></path>
                        <path d="M335.502901,251.041401 C358.079778,235.382883 358.079778,219.219251 358.079778,206.086301 L358.079778,192.95335 C355.45456,149.513591 340.753337,132.844846 288.248971,132.844846 C235.744605,132.844846 221.043382,149.513591 218.418164,192.95335 L218.418164,206.086301 C218.418164,219.219251 218.943208,235.382883 240.995041,251.041401 C214.217815,261.14367 212.11764,282.86355 212.11764,311.655018 C212.11764,354.084551 227.86895,375.299317 287.723927,376.309544 C348.103949,375.299317 363.330215,354.084551 363.330215,311.655018 C364.380302,282.86355 362.280128,261.14367 335.502901,251.041401 L335.502901,251.041401 Z M288.774015,168.707903 C310.825849,168.707903 319.751591,176.284605 319.751591,202.045393 C319.751591,226.795953 310.825849,235.382883 288.774015,235.382883 C266.722181,235.382883 257.796439,226.795953 257.796439,202.045393 C257.796439,176.284605 266.722181,168.707903 288.774015,168.707903 L288.774015,168.707903 Z M288.774015,340.446487 C263.046875,340.446487 254.121133,330.849331 254.121133,306.603884 C254.121133,282.358436 263.046875,271.24594 288.774015,271.24594 C314.501154,271.24594 323.426896,282.358436 323.426896,306.603884 C323.426896,330.849331 313.976111,340.446487 288.774015,340.446487 L288.774015,340.446487 Z" id="Shape" fill="#FFFFFF"></path>
                    </g>
                </g>
            </g>
        </g>
    </g>
</svg>